<?xml version="1.0" encoding="UTF-8" standalone="no"?>
<!-- Created with Inkscape (http://www.inkscape.org/) -->

<svg
   version="1.1"
   id="svg1"
   width="800"
   height="800"
   viewBox="0 0 800 800"
   sodipodi:docname="cfe.svg"
   inkscape:version="1.4.2 (ebf0e94, 2025-05-08)"
   inkscape:export-filename="cfe.png"
   inkscape:export-xdpi="96"
   inkscape:export-ydpi="96"
   xmlns:inkscape="http://www.inkscape.org/namespaces/inkscape"
   xmlns:sodipodi="http://sodipodi.sourceforge.net/DTD/sodipodi-0.dtd"
   xmlns="http://www.w3.org/2000/svg"
   xmlns:svg="http://www.w3.org/2000/svg">
  <defs
     id="defs1" />
  <sodipodi:namedview
     id="namedview1"
     pagecolor="#ffffff"
     bordercolor="#000000"
     borderopacity="0.25"
     inkscape:showpageshadow="2"
     inkscape:pageopacity="0.0"
     inkscape:pagecheckerboard="0"
     inkscape:deskcolor="#d1d1d1"
     showgrid="false"
     inkscape:zoom="1.08625"
     inkscape:cx="246.26007"
     inkscape:cy="272.03682"
     inkscape:window-width="1920"
     inkscape:window-height="1080"
     inkscape:window-x="0"
     inkscape:window-y="0"
     inkscape:window-maximized="1"
     inkscape:current-layer="g1"
     showguides="false">
    <sodipodi:guide
       position="838.43824,-41.042083"
       orientation="1,0"
       id="guide1"
       inkscape:locked="false" />
  </sodipodi:namedview>
  <g
     inkscape:groupmode="layer"
     inkscape:label="Image"
     id="g1">
    <path
       style="fill:#ffffff;fill-opacity:1;stroke-width:2.01658"
       d="m 110.55259,570.13837 c -20.286523,-6.48782 -30.939173,-13.3957 -47.245163,-30.63686 -25.21556,-26.66175 -36.00116,-56.65865 -35.95101,-99.98691 0.0161,-14.78824 1.82831,-36.17931 4.02487,-47.53566 12.18448,-62.9945 52.324476,-122.33469 103.607513,-145.58112 l 22.99709,-10.42451 c 14.93892,-2.89555 24.95173,-3.6723 36.32826,-3.76452 11.89571,0.5231 23.56129,0.77179 36.14744,3.8796 l 21.7024,9.57781 c 34.65144,15.29255 52.74349,39.77611 64.70643,79.19288 5.93217,19.54594 6.23784,19.20406 -17.16891,19.20406 h -21.01543 l -6.22073,-15.00865 c -7.30355,-17.62114 -26.70402,-38.21289 -43.79892,-46.48839 -16.65274,-8.06146 -52.11149,-8.03065 -73.88043,0.0642 -23.05073,8.57146 -52.63315,38.97375 -67.625003,69.49917 -27.51931,56.03307 -25.24029,116.46027 5.73275,152.00137 36.229873,41.57325 104.369323,35.68265 145.029273,-12.53765 l 11.03878,-13.09135 h 23.94591 23.94588 l -7.49942,14.11606 c -10.36909,19.5177 -46.74443,55.29188 -66.99651,65.88931 -8.99341,4.70603 -23.46451,10.4091 -32.15801,12.67346 -21.63476,5.63515 -60.35194,5.12849 -79.64706,-1.04228 z M 537.63072,523.5388 c 4.87565,-25.50974 11.90398,-62.71565 15.61852,-82.6798 3.71455,-19.96414 13.76791,-72.96525 22.3408,-117.78022 l 15.58707,-81.48177 85.76872,0.21754 c 47.17278,0.11959 86.27603,0.72488 86.89609,1.34497 0.62008,0.62005 -0.90611,10.2676 -3.39151,21.43898 l -4.5189,20.31159 h -61.60718 -61.60715 l -1.41897,6.04975 c -4.40026,18.7604 -17.5049,83.87817 -17.5049,86.98283 0,2.96454 11.67985,3.80201 61.1696,4.38593 l 61.16959,0.72175 -3.64018,20.83799 -3.64021,20.83802 H 666.4166 603.98106 l -9.9,47.72572 c -5.445,26.24916 -9.89197,49.23818 -9.88215,51.08672 0.0141,2.59223 14.36776,3.36095 62.7571,3.36095 h 62.73923 l -4.09961,21.51021 -4.0996,21.51019 H 615.13096 528.76592 Z M 334.5062,499.43776 c 7.07489,-37.39422 20.69098,-110.14684 30.25798,-161.67251 9.56701,-51.52566 17.93418,-94.22265 18.5937,-94.88217 2.63351,-2.63351 171.2829,-2.28775 171.21753,0.35103 -0.0589,2.37305 -2.44884,14.0742 -6.71763,32.88801 -1.35471,5.97048 -1.67155,6.00386 -63.80231,6.72195 l -62.44088,0.72165 -8.65716,44.36477 c -4.76143,24.40063 -8.70921,46.48218 -8.77284,49.07012 -0.10687,4.34892 4.59217,4.70535 62.03144,4.70535 h 62.14708 l -1.78538,12.77169 c -0.98198,7.02441 -2.46396,16.704 -3.29332,21.51018 l -1.5079,8.73853 h -62.69633 -62.69632 l -2.96869,14.30011 c -1.63278,7.86507 -8.16126,39.62621 -14.50774,70.58032 l -11.53904,56.2802 -22.86282,0.77012 -22.86281,0.77013 z"
       id="path1"
       sodipodi:nodetypes="sscsscccssscsssssscccsssssssscssscccssscccccscscccccssssssscssscsscccsscccs" />
    <path
       style="fill:#ffffff;fill-opacity:1;stroke-width:1.90693"
       d="m 323.36755,565.76082 c 0,-4.01655 58.00365,-311.32646 60.23516,-319.13269 0.76677,-2.68229 6.72274,-3.22558 46.12321,-4.20731 24.8835,-0.62002 62.92016,-0.52119 84.52586,0.2196 l 39.28317,1.34692 -3.51657,16.99187 c -1.93413,9.34554 -4.02163,17.49766 -4.63888,18.11585 -0.61728,0.6182 -28.72085,1.83404 -62.45242,2.70187 -33.73154,0.86784 -61.58636,1.83417 -61.8996,2.1474 -0.73305,0.73305 -14.91402,73.4287 -16.70503,85.63462 -1.0217,6.96299 -0.70531,9.68344 1.27178,10.93565 1.4475,0.9168 29.54107,1.68004 62.43015,1.69611 l 59.79837,0.0292 -0.98252,4.2906 c -0.54037,2.35983 -2.05704,11.78774 -3.37039,20.95092 l -2.38792,16.66032 -62.98436,0.50207 -62.98437,0.50205 -14.27426,70.07976 -14.27424,70.07974 -17.30797,0.026 c -9.51937,0.0141 -19.23873,0.54346 -21.59857,1.17588 -2.35982,0.63241 -4.2906,0.2965 -4.2906,-0.74647 z"
       id="path2"
       sodipodi:nodetypes="sssscssssssscssccccccsss" />
  </g>
</svg>
