<?xml version="1.0" encoding="UTF-8" standalone="no"?>
<!-- Created with Inkscape (http://www.inkscape.org/) -->
<svg
   xmlns:dc="http://purl.org/dc/elements/1.1/"
   xmlns:cc="http://web.resource.org/cc/"
   xmlns:rdf="http://www.w3.org/1999/02/22-rdf-syntax-ns#"
   xmlns:svg="http://www.w3.org/2000/svg"
   xmlns="http://www.w3.org/2000/svg"
   xmlns:sodipodi="http://sodipodi.sourceforge.net/DTD/sodipodi-0.dtd"
   xmlns:inkscape="http://www.inkscape.org/namespaces/inkscape"
   width="487.55905"
   height="637.44092"
   id="svg2106"
   sodipodi:version="0.32"
   inkscape:version="0.44.1"
   version="1.0"
   sodipodi:docbase="I:\Logos\[--Convertme!--]"
   sodipodi:docname="KUKA-Logo.svg">
  <defs
     id="defs2108" />
  <sodipodi:namedview
     id="base"
     pagecolor="#ffffff"
     bordercolor="#666666"
     borderopacity="1.0"
     inkscape:pageopacity="0.0"
     inkscape:pageshadow="2"
     inkscape:zoom="0.59142736"
     inkscape:cx="243.77953"
     inkscape:cy="203.57112"
     inkscape:document-units="px"
     inkscape:current-layer="layer1"
     width="137.6mm"
     height="179.9mm"
     units="mm"
     inkscape:window-width="925"
     inkscape:window-height="573"
     inkscape:window-x="132"
     inkscape:window-y="174" />
  <metadata
     id="metadata2111">
    <rdf:RDF>
      <cc:Work
         rdf:about="">
        <dc:format>image/svg+xml</dc:format>
        <dc:type
           rdf:resource="http://purl.org/dc/dcmitype/StillImage" />
      </cc:Work>
    </rdf:RDF>
  </metadata>
  <g
     inkscape:label="Ebene 1"
     inkscape:groupmode="layer"
     id="layer1"
     transform="translate(-870.3489,-216.0979)">
    <g
       id="g2261">
      <path
         style="fill:#ff6b24;fill-rule:nonzero;stroke:none;fill-opacity:1"
         d="M 1352.5928,848.23182 L 875.66404,848.23182 L 875.66404,221.40489 L 1352.5928,221.40489 L 1352.5928,848.23182"
         class="ps02"
         id="path26" />
      <g
         id="g2245">
        <path
           id="path28"
           class="ps03"
           d="M 1050.9575,443.30017 L 1064.502,444.4019 L 1064.502,454.85741 L 1050.9575,452.91436 L 1050.9575,443.30017"
           style="fill:black;fill-rule:nonzero;stroke:none" />
        <path
           id="path30"
           class="ps03"
           d="M 986.94942,534.89839 C 991.09343,531.79366 996.23137,529.91114 1001.817,529.91114 C 1007.6014,529.91114 1012.906,531.91414 1017.1184,535.21876 C 1015.3334,523.26095 1010.8961,510.80189 1000.8793,496.52025 C 986.79682,476.45011 964.15906,465.91428 959.4949,463.79081 C 959.4949,463.79081 953.72257,461.0267 950.86547,463.39023 C 947.67714,466.01451 951.61244,469.33938 951.61244,469.33938 C 951.61244,469.33938 972.80863,484.36221 980.74133,501.26756 C 987.71234,516.10996 987.0397,533.1359 986.94942,534.89839"
           style="fill:black;fill-rule:nonzero;stroke:none" />
        <path
           id="path32"
           class="ps04"
           d="M 906.39711,639.27594 L 906.39711,817.57155 L 1002.58,817.57155 L 1002.58,639.27594 L 906.39711,639.27594"
           style="fill:black;fill-rule:evenodd;stroke:none" />
        <path
           id="path34"
           class="ps04"
           d="M 1012.8257,639.27594 L 1012.8257,817.57155 L 1109.0084,817.57155 L 1109.0084,639.27594 L 1012.8257,639.27594"
           style="fill:black;fill-rule:evenodd;stroke:none" />
        <path
           id="path36"
           class="ps04"
           d="M 1119.2484,639.27594 L 1119.2484,817.57155 L 1215.4414,817.57155 L 1215.4414,639.27594 L 1119.2484,639.27594"
           style="fill:black;fill-rule:evenodd;stroke:none" />
        <path
           id="path38"
           class="ps04"
           d="M 1225.6809,639.27594 L 1225.6809,817.57155 L 1321.8739,817.57155 L 1321.8739,639.27594 L 1225.6809,639.27594"
           style="fill:black;fill-rule:evenodd;stroke:none" />
        <path
           id="path40"
           class="ps05"
           d="M 943.34636,723.91785 L 947.3941,723.91785 L 966.87159,679.46069 L 987.27466,679.46069 L 962.64115,732.2484 L 989.49531,787.04918 L 968.48385,787.04918 L 947.3941,740.86958 L 943.34636,740.86958 L 943.34636,787.04918 L 925.17593,787.04918 L 925.17593,679.46069 L 943.34636,679.46069 L 943.34636,723.91785"
           style="fill:white;fill-rule:nonzero;stroke:none" />
        <path
           id="path42"
           class="ps05"
           d="M 1156.2116,723.91785 L 1160.247,723.91785 L 1179.7229,679.46069 L 1200.1218,679.46069 L 1175.5061,732.2484 L 1202.3502,787.04918 L 1181.3489,787.04918 L 1160.247,740.86958 L 1156.2116,740.86958 L 1156.2116,787.04918 L 1138.0208,787.04918 L 1138.0208,679.46069 L 1156.2116,679.46069 L 1156.2116,723.91785"
           style="fill:white;fill-rule:nonzero;stroke:none" />
        <path
           id="path44"
           class="ps01"
           d="M 1088.9106,761.90152 C 1088.9106,778.87689 1081.1806,792.45364 1060.9784,792.45364 C 1042.0329,792.45364 1032.9316,778.87689 1032.9316,761.90152 L 1032.9316,679.46306 L 1051.1704,679.46306 L 1051.1704,764.19887 C 1051.1704,767.47373 1054.5816,773.58726 1061.1028,773.58726 C 1067.6322,773.58726 1070.6679,767.47373 1070.6679,764.19887 L 1070.6679,679.46306 L 1088.9106,679.46306 L 1088.9106,761.90152"
           style="fill:white;fill-rule:evenodd;stroke:none" />
        <path
           id="path46"
           style="fill:white;fill-rule:evenodd;stroke:none"
           d="M 1301.816,787.04726 L 1284.0272,787.04726 L 1284.0272,740.5974 L 1264.0497,740.5974 L 1264.0497,787.04726 L 1245.7389,787.04726 L 1245.7389,706.1593 C 1245.7389,689.01718 1258.0263,674.05669 1273.9879,674.05669 C 1292.1386,674.05669 1301.816,689.01718 1301.816,706.1593 L 1301.816,787.04726M 1284.0272,703.73763 C 1284.0272,699.60301 1280.8148,693.22545 1274.1084,693.22545 C 1268.266,693.22545 1264.0497,698.99643 1264.0497,703.61715 C 1264.0497,703.61715 1264.0497,712.84536 1264.0497,713.3301 L 1264.0497,723.92825 L 1284.0272,723.92825 L 1284.0272,713.21007 C 1284.1477,712.60304 1284.0272,703.73763 1284.0272,703.73763" />
        <path
           id="path50"
           class="ps03"
           d="M 1022.8123,554.60812 C 1022.8123,566.1856 1013.416,575.55974 1001.817,575.55974 C 990.21807,575.55974 980.81158,566.1856 980.81158,554.60812 C 980.81158,543.05089 990.21807,533.6565 1001.817,533.6565 C 1013.416,533.6565 1022.8123,543.05089 1022.8123,554.60812"
           style="fill:black;fill-rule:nonzero;stroke:none" />
        <path
           id="path52"
           class="ps03"
           d="M 924.82456,467.97735 C 924.82456,467.97735 950.16274,456.49999 984.66056,453.43542 C 1018.4976,450.41101 1047.986,452.75418 1047.986,452.75418 L 1047.986,442.99971 C 1047.986,442.99971 1011.6773,436.02926 975.95069,436.02926 C 940.20215,436.02926 903.26693,440.79637 903.26693,440.79637 C 903.26693,440.79637 920.51584,447.70697 924.82456,467.97735"
           style="fill:black;fill-rule:nonzero;stroke:none" />
        <path
           id="path54"
           class="ps03"
           d="M 906.39508,629.06094 L 1002.58,629.06094 L 997.54645,603.34165 L 912.03698,603.34165 L 906.39508,629.06094"
           style="fill:black;fill-rule:nonzero;stroke:none" />
        <path
           id="path56"
           class="ps03"
           d="M 977.05502,554.60812 C 977.05502,553.50639 977.15344,552.42503 977.29598,551.36357 C 974.3847,552.26495 959.5492,556.85162 949.03646,559.61573 C 937.90526,562.54048 903.26693,564.52322 903.26693,564.52322 C 903.26693,564.52322 908.17194,571.89425 911.86424,580.50739 C 915.55857,589.10017 912.9585,599.55613 912.9585,599.55613 L 996.76136,599.55613 C 996.76136,599.55613 996.14709,594.02792 996.76136,589.72135 C 997.38185,585.41489 1001.817,579.30555 1001.817,579.30555 C 988.14199,579.30555 977.05502,568.24867 977.05502,554.60812"
           style="fill:black;fill-rule:nonzero;stroke:none" />
      </g>
    </g>
  </g>
</svg>
