<svg xmlns="http://www.w3.org/2000/svg" viewBox="0 0 171.84 171.84"><defs><style>.cls-1{fill:none;stroke:#1d8ac2;stroke-linecap:round;stroke-linejoin:round;stroke-width:3px;}</style></defs><title>icon_data_manager</title><g id="Layer_2" data-name="Layer 2"><g id="Layer_1-2" data-name="Layer 1"><path class="cls-1" d="M133.85,114.75V109a1.13,1.13,0,0,0-1.12-1.13h-2.8a1.12,1.12,0,0,1-1.08-.86,19.83,19.83,0,0,0-2.16-5.22,1.12,1.12,0,0,1,.15-1.37l2-2a1.12,1.12,0,0,0,0-1.59l-4.1-4.09a1.11,1.11,0,0,0-1.58,0l-2,2a1.12,1.12,0,0,1-1.38.16,19.44,19.44,0,0,0-5.21-2.16,1.13,1.13,0,0,1-.87-1.09V88.81a1.12,1.12,0,0,0-1.12-1.12h-5.79a1.13,1.13,0,0,0-1.13,1.12V91.6a1.13,1.13,0,0,1-.86,1.09,19.5,19.5,0,0,0-5.22,2.16,1.11,1.11,0,0,1-1.37-.16l-2-2a1.12,1.12,0,0,0-1.59,0l-4.09,4.09a1.12,1.12,0,0,0,0,1.59l2,2a1.11,1.11,0,0,1,.16,1.37A19.5,19.5,0,0,0,90.52,107a1.13,1.13,0,0,1-1.09.86H86.64A1.13,1.13,0,0,0,85.52,109v5.79a1.12,1.12,0,0,0,1.12,1.12h2.79a1.13,1.13,0,0,1,1.09.87A19.44,19.44,0,0,0,92.68,122a1.12,1.12,0,0,1-.16,1.38l-2,2a1.11,1.11,0,0,0,0,1.58l4.09,4.1a1.12,1.12,0,0,0,1.59,0l2-2a1.12,1.12,0,0,1,1.37-.15A19.83,19.83,0,0,0,104.8,131a1.12,1.12,0,0,1,.86,1.08v2.8a1.13,1.13,0,0,0,1.13,1.12h5.79a1.12,1.12,0,0,0,1.12-1.12v-2.8a1.12,1.12,0,0,1,.87-1.08,19.77,19.77,0,0,0,5.21-2.16,1.13,1.13,0,0,1,1.38.15l2,2a1.11,1.11,0,0,0,1.58,0l4.1-4.1a1.11,1.11,0,0,0,0-1.58l-2-2a1.13,1.13,0,0,1-.15-1.38,19.77,19.77,0,0,0,2.16-5.21,1.12,1.12,0,0,1,1.08-.87h2.8A1.12,1.12,0,0,0,133.85,114.75Zm-24.17,10a12.87,12.87,0,1,1,9.11-3.77A12.78,12.78,0,0,1,109.68,124.73Z"/><path class="cls-1" d="M47,107.86V49.62C47,55.38,61,60.05,78.37,60.05s31.41-4.67,31.41-10.43V87.69"/><path class="cls-1" d="M109.78,49.62c0-5.76-14.06-10.43-31.41-10.43S47,43.86,47,49.62"/><path class="cls-1" d="M47,67.89C47,73.66,61,78.33,78.37,78.33s31.41-4.67,31.41-10.44"/><path class="cls-1" d="M47,89.06C47,94.82,61,99.49,78.37,99.49a87.62,87.62,0,0,0,12.42-.85"/><path class="cls-1" d="M47,107.86c0,5.76,14.06,10.43,31.41,10.43a86.52,86.52,0,0,0,12.34-.84"/><circle class="cls-1" cx="85.92" cy="85.92" r="84.42"/></g></g></svg>