<?xml version="1.0" encoding="UTF-8" standalone="no"?>
<svg
   clip-rule="evenodd"
   fill-rule="evenodd"
   image-rendering="optimizeQuality"
   shape-rendering="geometricPrecision"
   text-rendering="geometricPrecision"
   version="1.1"
   viewBox="3907.5 3929 3031.4348 3133.5922"
   xml:space="preserve"
   id="svg7"
   sodipodi:docname="vimonsa.svg"
   width="3031.4348"
   height="3133.5923"
   inkscape:version="1.4 (86a8ad7, 2024-10-11)"
   xmlns:inkscape="http://www.inkscape.org/namespaces/inkscape"
   xmlns:sodipodi="http://sodipodi.sourceforge.net/DTD/sodipodi-0.dtd"
   xmlns="http://www.w3.org/2000/svg"
   xmlns:svg="http://www.w3.org/2000/svg"><defs
   id="defs7" /><sodipodi:namedview
   id="namedview7"
   pagecolor="#ffffff"
   bordercolor="#000000"
   borderopacity="0.25"
   inkscape:showpageshadow="2"
   inkscape:pageopacity="0.0"
   inkscape:pagecheckerboard="0"
   inkscape:deskcolor="#d1d1d1"
   inkscape:zoom="0.12558216"
   inkscape:cx="2285.3565"
   inkscape:cy="1341.7511"
   inkscape:window-width="1920"
   inkscape:window-height="1027"
   inkscape:window-x="1072"
   inkscape:window-y="-8"
   inkscape:window-maximized="1"
   inkscape:current-layer="svg7" />
  
  
  
  
  
  
  
<path
   style="fill:#ffffff;stroke-width:0.696636;fill-opacity:1"
   d="m 4375.2484,6503.9992 c 0,0 880.5475,-640.2082 1397.4512,-2029.9965 0,0 30.652,-98.2256 96.8323,-88.4726 71.0569,3.483 57.8208,114.2482 52.2477,119.8212 0,0 -264.7215,925.1323 -1087.4483,1777.8145 0,0 -169.9791,172.0689 -360.8573,254.9686 -189.4849,82.8996 -98.2256,-34.1352 -98.2256,-34.1352 z"
   id="path2" /><path
   style="fill:#ffffff;stroke-width:0.696636;fill-opacity:1"
   d="m 5976.1172,4558.2956 c 17.4159,-13.236 36.225,-5.573 57.1242,47.3713 4.1798,11.8429 7.6629,24.3823 7.6629,36.2251 2.09,43.8881 -15.326,87.0794 -32.0452,128.1809 -187.3951,450.0268 -397.7791,890.9971 -668.7703,1293.6526 -64.7871,96.1357 -137.2372,192.968 -243.1258,238.2493 -47.3713,20.2025 -97.529,27.8655 -146.2935,35.5285 254.2719,-262.6317 459.0829,-568.4548 629.062,-890.3004 85.6862,-162.3163 162.3161,-330.2054 233.373,-499.4879 35.5283,-84.9895 69.6635,-171.3724 102.4055,-257.0585 13.236,-36.9217 34.8316,-111.4618 60.6072,-132.3609 z"
   id="path3" /><path
   style="fill:#ffffff;stroke-width:0.696636;fill-opacity:1"
   d="m 5990.7465,4995.7829 c 53.641,-48.0679 55.0343,55.7309 39.0117,100.3155 -119.8214,334.3852 -258.4519,666.6804 -470.9257,948.8179 -17.416,22.989 -35.5285,46.6746 -60.6073,60.6073 -25.079,14.6294 -59.2141,16.7192 -82.2031,-0.6966 121.9112,-146.9903 204.8109,-323.239 285.6207,-497.3979 56.4275,-122.6079 112.1583,-245.2158 167.8891,-367.8237 27.1688,-61.304 55.7309,-122.6079 82.8997,-183.9118 5.5731,-15.3261 20.8991,-43.1914 38.3149,-59.9107 z"
   id="path4" /><path
   style="fill:#ffffff;stroke-width:0.696636;fill-opacity:1"
   d="m 6053.4438,5231.2457 c 16.0226,8.3597 64.7872,158.833 72.4501,182.5187 30.6519,92.6525 57.8208,186.6983 80.8097,281.4408 4.8765,20.899 9.7529,44.5847 -2.7865,62.0005 -12.5394,20.8991 -42.4948,20.8991 -60.6073,6.2698 -18.8092,-13.9328 -29.2588,-36.9218 -39.7082,-60.6073 -46.6747,-115.6416 -71.7536,-238.9461 -97.5291,-362.9473 -4.8764,-18.8092 -7.663,-37.6182 -5.5731,-55.7308 2.09,-21.5957 13.9328,-39.7083 30.6521,-50.8544 9.7528,-5.5731 16.0225,-5.5731 22.2923,-2.09 z"
   id="path5" /><path
   style="fill:#ffffff;stroke-width:0.696636;fill-opacity:1"
   d="m 6081.3091,5122.5705 c -2.7864,-8.3595 -5.573,-18.809 -7.6629,-27.1687 -9.7529,-34.1352 12.5394,-84.2929 52.2477,-50.8544 13.9327,11.1462 20.2024,28.5621 25.7755,45.978 63.3938,184.6084 126.7877,367.8236 190.1816,551.7355 6.2697,18.1124 11.8428,36.2251 9.7528,55.0342 -2.7865,18.8091 -16.7192,37.6182 -34.8318,39.0116 -25.0789,2.0899 -41.7981,-25.7756 -51.551,-49.4612 -75.2367,-183.2152 -129.5742,-374.0934 -183.9119,-564.275 z"
   id="path6" /><path
   style="fill:#ffffff;stroke-width:0.696636;fill-opacity:1"
   d="m 6066.6798,4762.41 c 0,0 28.5621,-46.6747 68.967,-23.6856 40.4049,23.6856 308.6096,784.4117 326.0255,848.5022 17.416,64.0906 -36.2251,103.7988 -61.304,75.2367 -15.326,-18.1125 -22.9889,-48.7645 -31.3486,-71.0569 -20.899,-50.1577 -39.7081,-101.0122 -59.2139,-151.8665 -46.6747,-124.6978 -92.6526,-250.7888 -137.2373,-375.4867 -12.5394,-34.1351 -119.8214,-285.6206 -105.8887,-301.6432 z"
   id="path7" /></svg>
