<?xml version="1.0" encoding="UTF-8" standalone="no"?>
<svg
   clip-rule="evenodd"
   fill-rule="evenodd"
   image-rendering="optimizeQuality"
   shape-rendering="geometricPrecision"
   text-rendering="geometricPrecision"
   version="1.1"
   viewBox="3907.5 3929 3031.4348 3133.5922"
   xml:space="preserve"
   id="svg7"
   sodipodi:docname="vimonsa_project.svg"
   width="3031.4348"
   height="3133.5923"
   inkscape:version="1.4 (86a8ad7, 2024-10-11)"
   inkscape:export-filename="vimonsa_project.svg"
   inkscape:export-xdpi="96"
   inkscape:export-ydpi="96"
   xmlns:inkscape="http://www.inkscape.org/namespaces/inkscape"
   xmlns:sodipodi="http://sodipodi.sourceforge.net/DTD/sodipodi-0.dtd"
   xmlns="http://www.w3.org/2000/svg"
   xmlns:svg="http://www.w3.org/2000/svg"><defs
   id="defs7"><clipPath
     clipPathUnits="userSpaceOnUse"
     id="clipPath8"><g
       inkscape:label="Clip"
       id="use8"><path
         style="fill:#27b2d4;stroke-width:0.665665"
         d="m 4395.834,6432.5429 c 0,0 841.4011,-611.7465 1335.3248,-1939.749 0,0 29.2893,-93.8589 92.5275,-84.5395 67.8979,3.3283 55.2503,109.1691 49.9249,114.4944 0,0 -252.9528,884.0037 -1039.1037,1698.7782 0,0 -162.4223,164.4193 -344.8147,243.6335 -181.061,79.2142 -93.8588,-32.6176 -93.8588,-32.6176 z"
         id="path1" /><path
         style="fill:#6e949a;stroke-width:0.665665"
         d="m 5925.5331,4573.3394 c 16.6417,-12.6477 34.6147,-5.3253 54.5846,45.2652 3.994,11.3163 7.3223,23.2983 7.3223,34.6146 1.997,41.937 -14.6446,83.2082 -30.6206,122.4825 -179.064,430.0198 -380.0949,851.386 -639.0388,1236.1407 -61.9069,91.8618 -131.1361,184.3893 -232.3172,227.6575 -45.2653,19.3043 -93.1932,26.6267 -139.7898,33.949 242.9679,-250.9559 438.6736,-543.183 601.0959,-850.7204 81.8769,-155.1001 155.1001,-315.5254 222.9979,-477.2821 33.949,-81.2112 66.5666,-163.7537 97.8529,-245.6306 12.6476,-35.2803 33.2832,-106.5065 57.9128,-126.4764 z"
         id="path8" /><path
         style="fill:#27b2d4;stroke-width:0.665665"
         d="m 5939.5121,4991.3773 c 51.2563,-45.9309 52.5876,53.2532 37.2773,95.8558 -114.4945,319.5194 -246.9619,637.0418 -449.9898,906.6363 -16.6417,21.967 -33.949,44.5996 -57.9129,57.9129 -23.964,13.979 -56.5816,15.976 -78.5486,-0.6657 116.4915,-140.4554 195.7057,-308.8687 272.9229,-475.2851 53.9189,-117.1571 107.1721,-234.3142 160.4253,-351.4713 25.961,-58.5786 53.2533,-117.1571 79.2142,-175.7357 5.3253,-14.6446 19.97,-41.2713 36.6116,-57.2472 z"
         id="path9" /><path
         style="fill:#27b2d4;stroke-width:0.665665"
         d="m 5999.422,5216.3722 c 15.3103,7.988 61.9069,151.7717 69.2292,174.4043 29.2893,88.5335 55.2502,178.3984 77.2172,268.9289 4.6597,19.9699 9.3193,42.6025 -2.6627,59.2442 -11.9819,19.9699 -40.6055,19.9699 -57.9129,5.991 -17.9729,-13.3133 -27.9579,-35.2803 -37.9429,-57.9129 -44.5996,-110.5005 -68.5635,-228.3233 -93.1931,-346.8117 -4.6597,-17.973 -7.3224,-35.9459 -5.3254,-53.2532 1.997,-20.6357 13.3133,-37.943 29.2893,-48.5936 9.3193,-5.3253 15.3103,-5.3253 21.3013,-1.997 z"
         id="path10" /><path
         style="fill:#6e949a;stroke-width:0.665665"
         d="m 6026.0486,5112.5284 c -2.6626,-7.988 -5.3253,-17.973 -7.3223,-25.961 -9.3193,-32.6176 11.982,-80.5455 49.9249,-48.5936 13.3133,10.6507 19.3043,27.2923 24.6296,43.934 60.5756,176.4013 121.1511,351.4713 181.7267,527.207 5.991,17.3073 11.3163,34.6146 9.3193,52.5875 -2.6627,17.973 -15.976,35.946 -33.2833,37.2773 -23.9639,1.997 -39.9399,-24.6296 -49.2592,-47.2622 -71.8919,-175.07 -123.8138,-357.4624 -175.7357,-539.189 z"
         id="path11" /><path
         style="fill:#27b2d4;stroke-width:0.665665"
         d="m 6012.0697,4768.3794 c 0,0 27.2922,-44.5996 65.9008,-22.6327 38.6086,22.6327 294.8898,749.5393 311.5314,810.7805 16.6417,61.2412 -34.6146,99.1842 -58.5785,71.8919 -14.6446,-17.3073 -21.967,-46.5966 -29.955,-67.8979 -19.9699,-47.9279 -37.9429,-96.5215 -56.5815,-145.1151 -44.5996,-119.1541 -88.5335,-239.6395 -131.1361,-358.7936 -11.982,-32.6176 -114.4945,-272.9228 -101.1811,-288.2331 z"
         id="path12" /></g></clipPath></defs><sodipodi:namedview
   id="namedview7"
   pagecolor="#ffffff"
   bordercolor="#000000"
   borderopacity="0.25"
   inkscape:showpageshadow="2"
   inkscape:pageopacity="0.0"
   inkscape:pagecheckerboard="0"
   inkscape:deskcolor="#d1d1d1"
   inkscape:zoom="0.1776"
   inkscape:cx="1483.6712"
   inkscape:cy="976.91441"
   inkscape:window-width="1920"
   inkscape:window-height="1027"
   inkscape:window-x="1072"
   inkscape:window-y="-8"
   inkscape:window-maximized="1"
   inkscape:current-layer="svg7" />
  
  
  
  
  
  
  <path
   style="fill:#27b2d4;stroke-width:0.906019"
   d="m 4078.5189,6832.3394 c 0,0 1145.2089,-832.632 1817.4753,-2640.1411 0,0 39.8649,-127.7488 125.9367,-115.0644 92.4141,4.53 75.1998,148.5871 67.9515,155.8353 0,0 -344.2873,1203.194 -1414.2966,2312.162 0,0 -221.0686,223.7867 -469.3181,331.6031 -246.4373,107.8164 -127.7488,-44.3949 -127.7488,-44.3949 z"
   id="path2" /><path
   style="fill:#6e949a;stroke-width:0.906019"
   d="m 6160.552,4301.8267 c 22.6505,-17.2144 47.113,-7.2481 74.2935,61.6093 5.4363,15.4023 9.9663,31.7107 9.9663,47.1129 2.718,57.0794 -19.9324,113.2525 -41.6769,166.7078 -243.7192,585.2885 -517.3372,1158.7989 -869.7788,1682.4783 -84.2599,125.0307 -178.4859,250.9674 -316.2009,309.8587 -61.6093,26.2745 -126.8427,36.2408 -190.2641,46.2071 330.6971,-341.5695 597.067,-739.3121 818.1357,-1157.8931 111.4405,-211.1027 211.1027,-429.4533 303.5165,-649.6161 46.2071,-110.5344 90.602,-222.8808 133.1851,-334.3212 17.2143,-48.0192 45.3009,-144.9632 78.8236,-172.1437 z"
   id="path3" /><path
   style="fill:#27b2d4;stroke-width:0.906019"
   d="m 6179.5783,4870.807 c 69.7637,-62.5154 71.5757,72.4815 50.7372,130.4668 -155.8354,434.8894 -336.1333,867.0608 -612.4692,1233.9986 -22.6506,29.8988 -46.207,60.7035 -78.8238,78.8238 -32.6167,19.0264 -77.0116,21.7444 -106.9104,-0.9061 158.5535,-191.1702 266.3699,-420.393 371.4682,-646.8979 73.3876,-159.4595 145.8691,-318.919 218.3506,-478.3783 35.3349,-79.7298 72.4818,-159.4595 107.8164,-239.1893 7.2481,-19.9323 27.1806,-56.1733 49.831,-77.9176 z"
   id="path4" /><path
   style="fill:#27b2d4;stroke-width:0.906019"
   d="m 6261.1202,5177.0416 c 20.8384,10.8723 84.2598,206.5725 94.226,237.377 39.8649,120.5007 75.1996,242.8134 105.0982,366.0321 6.3422,27.1804 12.6843,57.9851 -3.6241,80.6357 -16.3082,27.1805 -55.267,27.1805 -78.8237,8.1543 -24.4625,-18.1205 -38.0527,-48.0192 -51.6431,-78.8238 -60.7033,-150.3994 -93.3199,-310.7648 -126.8426,-472.0362 -6.3422,-24.4626 -9.9663,-48.9251 -7.2483,-72.4815 2.7181,-28.0868 18.1204,-51.6432 39.8649,-66.1396 12.6843,-7.248 20.8384,-7.248 28.9927,-2.718 z"
   id="path5" /><path
   style="fill:#6e949a;stroke-width:0.906019"
   d="m 6297.3609,5035.7026 c -3.624,-10.8723 -7.2481,-24.4626 -9.9662,-35.3349 -12.6843,-44.3949 16.3084,-109.6283 67.9515,-66.1394 18.1204,14.4963 26.2745,37.1468 33.5227,59.7973 82.4478,240.0953 164.8956,478.3783 247.3434,717.5676 8.1542,23.5564 15.4023,47.113 12.6843,71.5755 -3.6242,24.4624 -21.7445,48.9251 -45.3011,50.7371 -32.6166,2.718 -54.3611,-33.5227 -67.0454,-64.3274 -97.8502,-238.2831 -168.5196,-486.5326 -239.1892,-733.8758 z"
   id="path6" /><path
   style="fill:#27b2d4;stroke-width:0.906019"
   d="m 6278.3346,4567.2904 c 0,0 37.1467,-60.7033 89.6959,-30.8047 52.549,30.8047 401.3666,1020.1781 424.0171,1103.5318 22.6505,83.3538 -47.113,134.997 -79.7296,97.8503 -19.9325,-23.5566 -29.8987,-63.4215 -40.771,-92.4141 -27.1805,-65.2334 -51.6431,-131.3728 -77.0117,-197.5124 -60.7033,-162.1775 -120.5005,-326.1668 -178.4858,-488.3445 -16.3084,-44.3949 -155.8354,-371.4678 -137.7149,-392.3064 z"
   id="path7" />
</svg>
